<svg width="446" height="184" viewBox="0 0 446 184" fill="none" xmlns="http://www.w3.org/2000/svg">
<path d="M177.801 120.502C172.176 120.502 167.261 119.223 163.057 116.667C158.852 114.11 155.585 110.559 153.256 106.013C150.926 101.411 149.761 96.0697 149.761 89.9901C149.761 83.8537 150.954 78.4559 153.341 73.7967C155.784 69.0808 159.222 65.416 163.653 62.8023C168.142 60.1318 173.455 58.7966 179.591 58.7966C186.58 58.7966 192.375 60.4727 196.978 63.825C201.58 67.1773 204.563 71.8081 205.927 77.7172H193.739C192.83 74.9331 191.182 72.774 188.796 71.2399C186.409 69.649 183.341 68.8535 179.591 68.8535C173.625 68.8535 169.023 70.7569 165.784 74.5638C162.545 78.3138 160.926 83.4843 160.926 90.0753C160.926 96.6663 162.517 101.78 165.699 105.416C168.938 108.996 173.313 110.786 178.824 110.786C184.222 110.786 188.284 109.337 191.012 106.439C193.796 103.485 195.472 99.6209 196.04 94.8481H180.955V86.6662H207.035V119.479H196.978L196.125 111.638C194.194 114.479 191.779 116.667 188.881 118.201C185.983 119.735 182.29 120.502 177.801 120.502Z" fill="black"/>
<path d="M213.123 119.479V58.1147H224.032V119.479H213.123Z" fill="black"/>
<path d="M251.202 120.502C247.111 120.502 243.418 119.564 240.122 117.689C236.884 115.814 234.299 113.229 232.367 109.934C230.492 106.581 229.554 102.718 229.554 98.3425C229.554 93.9674 230.52 90.1322 232.452 86.8367C234.384 83.4844 236.969 80.8707 240.208 78.9957C243.503 77.1206 247.196 76.1831 251.287 76.1831C255.321 76.1831 258.958 77.1206 262.197 78.9957C265.492 80.8707 268.077 83.4844 269.952 86.8367C271.884 90.1322 272.85 93.9674 272.85 98.3425C272.85 102.718 271.884 106.581 269.952 109.934C268.077 113.229 265.492 115.814 262.197 117.689C258.901 119.564 255.236 120.502 251.202 120.502ZM251.202 111.041C254.043 111.041 256.515 109.99 258.617 107.888C260.719 105.729 261.77 102.547 261.77 98.3425C261.77 94.1379 260.719 90.9844 258.617 88.8821C256.515 86.723 254.071 85.6435 251.287 85.6435C248.39 85.6435 245.89 86.723 243.787 88.8821C241.742 90.9844 240.719 94.1379 240.719 98.3425C240.719 102.547 241.742 105.729 243.787 107.888C245.89 109.99 248.361 111.041 251.202 111.041Z" fill="black"/>
<path d="M295.814 120.502C292.064 120.502 288.769 119.905 285.928 118.712C283.087 117.462 280.814 115.757 279.11 113.598C277.405 111.439 276.382 108.939 276.042 106.098H287.036C287.377 107.746 288.286 109.166 289.763 110.36C291.297 111.496 293.258 112.064 295.644 112.064C298.03 112.064 299.763 111.581 300.843 110.615C301.979 109.649 302.548 108.541 302.548 107.291C302.548 105.473 301.752 104.252 300.161 103.627C298.57 102.945 296.354 102.291 293.513 101.666C291.695 101.269 289.848 100.786 287.973 100.217C286.098 99.6493 284.365 98.9391 282.775 98.0868C281.24 97.1777 279.99 96.0413 279.025 94.6777C278.059 93.2572 277.576 91.5242 277.576 89.4787C277.576 85.7287 279.053 82.5753 282.007 80.0184C285.019 77.4616 289.223 76.1831 294.621 76.1831C299.621 76.1831 303.599 77.3479 306.553 79.6775C309.565 82.0071 311.354 85.2173 311.923 89.3083H301.61C300.985 86.1832 298.627 84.6207 294.536 84.6207C292.491 84.6207 290.9 85.0185 289.763 85.8139C288.684 86.6094 288.144 87.6037 288.144 88.7969C288.144 90.0469 288.968 91.0413 290.616 91.7799C292.263 92.5185 294.451 93.2004 297.178 93.8254C300.133 94.5072 302.832 95.2743 305.275 96.1265C307.775 96.922 309.763 98.1436 311.241 99.7914C312.718 101.382 313.457 103.683 313.457 106.695C313.514 109.309 312.832 111.666 311.411 113.769C309.991 115.871 307.945 117.519 305.275 118.712C302.604 119.905 299.451 120.502 295.814 120.502Z" fill="black"/>
<path d="M336.331 120.502C332.581 120.502 329.286 119.905 326.445 118.712C323.604 117.462 321.331 115.757 319.626 113.598C317.922 111.439 316.899 108.939 316.558 106.098H327.553C327.894 107.746 328.803 109.166 330.28 110.36C331.814 111.496 333.774 112.064 336.161 112.064C338.547 112.064 340.28 111.581 341.36 110.615C342.496 109.649 343.064 108.541 343.064 107.291C343.064 105.473 342.269 104.252 340.678 103.627C339.087 102.945 336.871 102.291 334.03 101.666C332.212 101.269 330.365 100.786 328.49 100.217C326.615 99.6493 324.882 98.9391 323.291 98.0868C321.757 97.1777 320.507 96.0413 319.541 94.6777C318.575 93.2572 318.092 91.5242 318.092 89.4787C318.092 85.7287 319.57 82.5753 322.524 80.0184C325.536 77.4616 329.74 76.1831 335.138 76.1831C340.138 76.1831 344.115 77.3479 347.07 79.6775C350.081 82.0071 351.871 85.2173 352.439 89.3083H342.127C341.502 86.1832 339.144 84.6207 335.053 84.6207C333.007 84.6207 331.416 85.0185 330.28 85.8139C329.2 86.6094 328.661 87.6037 328.661 88.7969C328.661 90.0469 329.484 91.0413 331.132 91.7799C332.78 92.5185 334.967 93.2004 337.695 93.8254C340.649 94.5072 343.348 95.2743 345.791 96.1265C348.292 96.922 350.28 98.1436 351.757 99.7914C353.235 101.382 353.973 103.683 353.973 106.695C354.03 109.309 353.348 111.666 351.928 113.769C350.507 115.871 348.462 117.519 345.791 118.712C343.121 119.905 339.968 120.502 336.331 120.502Z" fill="black"/>
<path d="M362.413 138.229L372.214 116.667H369.657L353.208 77.2059H365.055L376.902 106.951L389.26 77.2059H400.851L374.004 138.229H362.413Z" fill="black"/>
<path d="M69.4612 112.65L112.461 69.6502L105.39 62.5791L62.3901 105.579L69.4612 112.65Z" fill="black"/>
<path d="M86.4612 69.6502L69.4612 86.6502L62.3901 79.5791L79.3901 62.5791L86.4612 69.6502Z" fill="black"/>
<path d="M95.4612 112.65L112.461 95.6502L105.39 88.5791L88.3901 105.579L95.4612 112.65Z" fill="black"/>
<path fill-rule="evenodd" clip-rule="evenodd" d="M45.9258 129.115V45.1147H129.926V129.115H45.9258ZM55.9258 55.1147H119.926V119.115H55.9258V55.1147Z" fill="black"/>
</svg>
