<svg width="357" height="90" viewBox="0 0 357 90" fill="none" xmlns="http://www.w3.org/2000/svg">
<path d="M0.632908 13.7927C0.00164413 15.3164 0.00161362 17.248 0.00167465 21.1108C0.00170135 24.9728 0.00170517 26.9052 0.632702 28.4286C1.47416 30.4601 3.08831 32.0742 5.11974 32.9157C6.64334 33.5468 8.57483 33.5468 12.4378 33.5468C16.2986 33.5467 18.2326 33.5467 19.7556 32.916C21.7872 32.0743 23.4014 30.4601 24.2426 28.4289C24.8739 26.9051 24.8737 24.9738 24.8739 21.1107C24.8738 17.2478 24.8709 15.3192 24.24 13.7954C23.3983 11.7643 21.7841 10.1501 19.7529 9.30838C18.2292 8.67747 16.3007 8.67478 12.4378 8.67466C8.57474 8.67486 6.64344 8.67463 5.11968 9.30589C3.0884 10.1472 1.47419 11.7614 0.632908 13.7927Z" fill="black"/>
<path d="M0.631432 41.8447C0.000347137 43.3683 0.000350952 45.2998 0.000350952 49.1627C0.000350952 53.0246 0.000492096 54.9573 0.631226 56.4804C1.4728 58.512 3.08702 60.1262 5.1183 60.9675C6.64206 61.5987 8.57365 61.5988 12.4365 61.5987C16.2973 61.5988 18.231 61.5985 19.7542 60.9676C21.7857 60.1262 23.3998 58.5121 24.2412 56.4806C24.8725 54.9571 24.8724 53.0255 24.8725 49.1627C24.8726 45.2998 24.8697 43.3711 24.2384 41.8474C23.3971 39.8161 21.7829 38.2019 19.7513 37.3603C18.2279 36.7293 16.2994 36.7267 12.4364 36.7266C8.57347 36.7266 6.64199 36.7266 5.11839 37.3577C3.08695 38.1992 1.47289 39.8132 0.631432 41.8447Z" fill="black"/>
<path d="M28.0538 21.1092C28.0537 24.9712 28.0537 26.9035 28.6845 28.4271C29.5261 30.4587 31.1403 32.0729 33.1716 32.9142C34.6955 33.5453 36.6269 33.545 40.4899 33.5453C44.3503 33.5453 46.2846 33.545 47.8076 32.9142C49.8389 32.0729 51.4531 30.4587 52.2947 28.4271C52.9258 26.9038 52.9258 24.9721 52.9258 21.1094C52.9261 17.2464 52.9231 15.3177 52.2918 13.794C51.4505 11.7627 49.8363 10.1485 47.8047 9.30695C46.2813 8.67586 44.3529 8.67322 40.4897 8.67334C36.6269 8.67325 34.6953 8.67331 33.1719 9.30428C31.1403 10.1459 29.5264 11.7598 28.6848 13.7913C28.0538 15.3148 28.0537 17.2464 28.0538 21.1092Z" fill="black"/>
<path d="M28.6847 41.8445C28.0536 43.3684 28.0536 45.3001 28.0536 49.1628C28.0538 53.0248 28.0536 54.9572 28.6847 56.4806C29.5262 58.5122 31.1402 60.1261 33.1717 60.9677C34.6952 61.5986 36.6268 61.5987 40.4896 61.5986C44.3505 61.5987 46.2845 61.5987 47.8075 60.9679C49.8392 60.1264 51.4534 58.5121 52.2946 56.4808C52.926 54.9572 52.9257 53.0258 52.9257 49.1625C52.9257 45.2998 52.9228 43.3711 52.292 41.8474C51.4501 39.8161 49.8362 38.2022 47.8049 37.3604C46.2813 36.7296 44.3525 36.7266 40.4898 36.7266C36.6268 36.7269 34.6954 36.7266 33.1715 37.3577C31.1405 38.1993 29.5263 39.8135 28.6847 41.8445Z" fill="black"/>
<path d="M0.631248 70.2459C0.000164032 71.7695 0.000167847 73.701 0.000167847 77.5639C0.000167847 81.4258 0.00030899 83.3585 0.631042 84.8816C1.47262 86.9132 3.08683 88.5274 5.11812 89.3687C6.64187 90 8.57347 90 12.4363 89.9999C16.2972 90 18.2308 89.9998 19.754 89.3689C21.7855 88.5274 23.3996 86.9133 24.241 84.8818C24.8723 83.3583 24.8722 81.4268 24.8723 77.5639C24.8724 73.7011 24.8695 71.7723 24.2382 70.2486C23.397 68.2173 21.7827 66.6031 19.7512 65.7615C18.2277 65.1305 16.2993 65.1279 12.4363 65.1279C8.57329 65.1279 6.64181 65.1279 5.1182 65.759C3.08677 66.6004 1.47271 68.2145 0.631248 70.2459Z" fill="black"/>
<path d="M86.1254 23.5378H78.4793V57.87H69.8588V23.5378H64.9863V16.5664H69.8588V13.6429C69.8588 8.89539 71.1082 5.44718 73.6069 3.29829C76.1555 1.09943 80.1285 0 85.5257 0V7.12131C82.927 7.12131 81.103 7.62105 80.0535 8.62054C79.0041 9.57005 78.4793 11.2442 78.4793 13.6429V16.5664H86.1254V23.5378Z" fill="black"/>
<path d="M98.5832 22.5633C99.8325 20.4644 101.482 18.8402 103.531 17.6908C105.63 16.4915 108.103 15.8918 110.952 15.8918V24.7372H108.778C105.43 24.7372 102.881 25.5867 101.132 27.2859C99.4327 28.985 98.5832 31.9335 98.5832 36.1313V57.87H90.0376V16.5664H98.5832V22.5633Z" fill="black"/>
<path d="M112.297 37.0308C112.297 32.883 113.147 29.2099 114.846 26.0115C116.595 22.8132 118.944 20.3395 121.892 18.5904C124.891 16.7913 128.189 15.8918 131.787 15.8918C135.035 15.8918 137.859 16.5414 140.258 17.8408C142.706 19.0901 144.655 20.6643 146.105 22.5633V16.5664H154.725V57.87H146.105V51.7232C144.655 53.6722 142.681 55.2964 140.183 56.5957C137.684 57.895 134.836 58.5447 131.637 58.5447C128.089 58.5447 124.841 57.6451 121.892 55.8461C118.944 53.997 116.595 51.4484 114.846 48.2C113.147 44.9017 112.297 41.1787 112.297 37.0308ZM146.105 37.1807C146.105 34.3322 145.505 31.8585 144.306 29.7596C143.156 27.6607 141.632 26.0615 139.733 24.9621C137.834 23.8626 135.785 23.3129 133.586 23.3129C131.387 23.3129 129.338 23.8626 127.439 24.9621C125.54 26.0115 123.991 27.5857 122.792 29.6846C121.642 31.7336 121.068 34.1823 121.068 37.0308C121.068 39.8793 121.642 42.3781 122.792 44.5269C123.991 46.6758 125.54 48.325 127.439 49.4744C129.388 50.5738 131.437 51.1235 133.586 51.1235C135.785 51.1235 137.834 50.5738 139.733 49.4744C141.632 48.375 143.156 46.7758 144.306 44.6769C145.505 42.528 146.105 40.0293 146.105 37.1807Z" fill="black"/>
<path d="M183.127 15.8918C186.376 15.8918 189.274 16.5664 191.823 17.9157C194.422 19.265 196.446 21.264 197.895 23.9126C199.344 26.5612 200.069 29.7596 200.069 33.5076V57.87H191.598V34.782C191.598 31.0839 190.674 28.2604 188.825 26.3114C186.975 24.3124 184.452 23.3129 181.253 23.3129C178.055 23.3129 175.506 24.3124 173.607 26.3114C171.758 28.2604 170.834 31.0839 170.834 34.782V57.87H162.288V16.5664H170.834V21.289C172.233 19.5899 174.007 18.2655 176.156 17.316C178.355 16.3665 180.679 15.8918 183.127 15.8918Z" fill="black"/>
<path d="M223.649 37.2557L242.69 57.87H231.146L215.854 40.1042V57.87H207.308V2.39876H215.854V34.6321L230.846 16.5664H242.69L223.649 37.2557Z" fill="black"/>
<path d="M262.47 23.5378H254.824V57.87H246.203V23.5378H241.331V16.5664H246.203V13.6429C246.203 8.89539 247.452 5.44718 249.951 3.29829C252.5 1.09943 256.473 0 261.87 0V7.12131C259.271 7.12131 257.447 7.62105 256.398 8.62054C255.348 9.57005 254.824 11.2442 254.824 13.6429V16.5664H262.47V23.5378Z" fill="black"/>
<path d="M303.787 16.5664V57.87H295.242V52.9976C293.893 54.6967 292.118 56.046 289.92 57.0455C287.771 57.995 285.472 58.4697 283.023 58.4697C279.775 58.4697 276.851 57.7951 274.253 56.4458C271.704 55.0965 269.68 53.0975 268.181 50.4489C266.732 47.8002 266.007 44.6019 266.007 40.8538V16.5664H274.478V39.5795C274.478 43.2776 275.402 46.1261 277.251 48.1251C279.1 50.0741 281.624 51.0486 284.822 51.0486C288.021 51.0486 290.544 50.0741 292.393 48.1251C294.292 46.1261 295.242 43.2776 295.242 39.5795V16.5664H303.787Z" fill="black"/>
<path d="M319.947 22.5633C321.196 20.4644 322.846 18.8402 324.894 17.6908C326.993 16.4915 329.467 15.8918 332.316 15.8918V24.7372H330.142C326.793 24.7372 324.245 25.5867 322.496 27.2859C320.797 28.985 319.947 31.9335 319.947 36.1313V57.87H311.401V16.5664H319.947V22.5633Z" fill="black"/>
<path d="M346.479 23.5378V46.401C346.479 47.9502 346.829 49.0746 347.529 49.7742C348.278 50.4239 349.528 50.7487 351.277 50.7487H356.524V57.87H349.778C345.93 57.87 342.981 56.9705 340.932 55.1714C338.883 53.3724 337.859 50.4489 337.859 46.401V23.5378H332.986V16.5664H337.859V6.29674H346.479V16.5664H356.524V23.5378H346.479Z" fill="black"/>
</svg>
